<?xml version="1.0" encoding="UTF-8"?><svg id="a" xmlns="http://www.w3.org/2000/svg" viewBox="0 0 32 32"><path d="m30.68,2.89c1.76,8.77,1.76,17.46,0,26.23-.16.78-.78,1.41-1.57,1.57-8.77,1.76-17.46,1.76-26.23,0-.78-.16-1.41-.78-1.57-1.57C-.44,20.34-.44,11.66,1.32,2.89c.16-.78.78-1.41,1.57-1.57C11.66-.44,20.34-.44,29.11,1.32c.78.16,1.41.78,1.57,1.57Z" style="fill:#074be2;"/><path d="m7.2,24.8c-.61,0-1.12-.22-1.55-.65s-.65-.95-.65-1.55v-13.2c0-.6.22-1.12.65-1.55s.95-.65,1.55-.65h17.6c.61,0,1.12.22,1.55.65s.65.95.65,1.55v13.2c0,.61-.22,1.12-.65,1.55s-.95.65-1.55.65H7.2Zm0-2.2h17.6v-11H7.2v11Zm3.85-1.1l-1.54-1.54,2.83-2.86-2.86-2.86,1.57-1.54,4.4,4.4-4.4,4.4Zm4.95,0v-2.2h6.6v2.2h-6.6Z" style="fill:#fff;"/></svg>