<?xml version="1.0" encoding="UTF-8"?><svg id="a" xmlns="http://www.w3.org/2000/svg" viewBox="0 0 64.5 10"><path d="m34.16.9c.25,0,.44.2.44.44v7.31c0,.25-.2.44-.44.44h-7.31c-.25,0-.44-.2-.44-.44V1.34c0-.25.2-.44.44-.44h7.31M34.16,0h-7.31C26.1,0,25.5.6,25.5,1.34v7.31c0,.74.6,1.34,1.34,1.34h7.31c.74,0,1.34-.6,1.34-1.34V1.34C35.5.6,34.9,0,34.16,0h0Z" style="fill:#fff;"/><line x1=".5" y1="6" x2="9" y2="6" style="fill:none; stroke:#fff; stroke-linecap:round; stroke-linejoin:round;"/><g><line x1="55" y1="9.5" x2="64" y2=".5" style="fill:none; stroke:#fff; stroke-linecap:round; stroke-linejoin:round;"/><line x1="64" y1="9.5" x2="55" y2=".5" style="fill:none; stroke:#fff; stroke-linecap:round; stroke-linejoin:round;"/></g></svg>